<?xml version="1.0" encoding="utf-8"?>
<!-- Generator: Adobe Illustrator 18.1.1, SVG Export Plug-In . SVG Version: 6.00 Build 0)  -->
<svg version="1.1" xmlns="http://www.w3.org/2000/svg" xmlns:xlink="http://www.w3.org/1999/xlink" x="0px" y="0px"
	 viewBox="0 0 283.5 283.5" enable-background="new 0 0 283.5 283.5" xml:space="preserve">
<g id="Layer_2">
	<rect x="0" y="0" fill="#1249F9" width="283.5" height="283.5"/>
</g>
<g id="Layer_1">
	<g>
		<g>
			<path fill="#FFFFFF" d="M236.4,180.3c-0.2-0.1-0.5-0.1-0.7-0.2c-1.6-0.5-2.6-1.8-2.6-3.6c0-1.8,0-3.5,0-5.3
				c0-0.4-0.1-0.6-0.5-0.7c-5.1-1.8-8.4-6.4-8.5-11.8c0-3.4,0-6.7,0-10.1c0-2.1,1.5-3.6,3.6-3.7c2,0,3.5,1.5,3.6,3.6
				c0,2.7,0,5.4,0,8c0,1.3,0,2.5,0.2,3.8c0.6,2.7,2.8,4.2,5.8,4c2.5-0.1,4.4-2,4.7-4.7c0.1-1.5,0.1-3.1,0.1-4.7c0-2.2,0-4.4,0-6.6
				c0-1.9,1.4-3.3,3.5-3.5c1.8-0.1,3.4,1.1,3.7,3c0,0.2,0.1,0.3,0.1,0.5c0,3.4,0,6.7,0,10.1c0,0.2-0.1,0.5-0.1,0.7
				c-0.3,5.2-3.5,9.6-8.4,11.3c-0.5,0.2-0.6,0.4-0.6,0.8c0,1.7,0,3.4,0,5.2c0,1.8-1,3.1-2.5,3.6c-0.2,0.1-0.4,0.1-0.6,0.2
				C236.9,180.3,236.7,180.3,236.4,180.3z"/>
			<path fill="#FFFFFF" d="M189.3,168.1c-2.7,2.6-6,3.5-9.5,3c-5.1-0.7-8.5-3.6-10.3-8.4c-2.9-7.7,1.6-16.1,9.7-17.8
				c7.3-1.6,14.7,3,16.1,10.7c0.1,0.5,0.2,1.1,0.2,1.7c0,3.4,0,6.8,0,10.2c0,2.1-1.6,3.5-3.5,3.3c-1.2-0.1-1.9-0.8-2.3-1.8
				C189.4,168.7,189.4,168.5,189.3,168.1z M188.6,157.9c0-3.6-2.7-6.4-6.3-6.5c-3.7,0-6.6,2.7-6.6,6.3c0,3.7,2.8,6.6,6.4,6.6
				C185.8,164.4,188.6,161.6,188.6,157.9z"/>
			<path fill="#FFFFFF" d="M148.4,160.4c0.8,2.3,2.3,3.8,4.6,4.4c2.2,0.5,4.2,0.2,6.1-1c0.8-0.5,1.7-0.9,2.7-0.8
				c2.1,0.3,3.2,2.8,1.8,4.6c-0.7,0.9-1.7,1.6-2.7,2.1c-5.2,2.4-10.3,2.4-15-1.3c-2.8-2.2-4.2-5.2-4.6-8.7
				c-0.4-3.7,0.3-7.2,2.6-10.1c2.9-3.7,6.9-5.1,11.5-4.8c5.3,0.4,9.6,4,10.8,9.2c0.3,1.4,0.5,2.9,0.1,4.4c-0.3,1.3-1,1.9-2.3,2
				c-0.4,0-0.7,0.1-1.1,0.1c-4.5,0-9,0-13.4,0C149,160.4,148.8,160.4,148.4,160.4z M160,155.6c0.1-1.7-1.6-4.4-5-4.7
				c-3.2-0.3-6.3,2-6.6,4.7C152.3,155.6,156.1,155.6,160,155.6z"/>
			<path fill="#FFFFFF" d="M210.2,151.7c-0.4,0-0.7,0-0.9,0c-2.3,0-4.5,0-6.8,0c-1.2,0-2.2-0.4-3-1.3c-0.8-0.9-1.1-2-0.7-3.2
				c0.4-1.2,1.4-1.9,2.6-2.2c0.3-0.1,0.6-0.1,1-0.1c4.6,0,9.2,0,13.9,0c0.5,0,1,0,1.5,0.2c2.8,0.7,3.8,3.5,2.1,5.8
				c-0.7,0.9-1.5,1.8-2.2,2.6c-2.8,3.3-5.6,6.7-8.5,10c-0.1,0.1-0.2,0.3-0.4,0.5c0.4,0,0.6,0,0.8,0c2.7,0,5.4,0,8,0
				c1.6,0,3.1,1.2,3.4,2.7c0.4,1.9-1,3.9-3,4.1c-0.7,0.1-1.4,0-2.2,0c-4.4,0-8.8,0-13.2,0c-1.7,0-3.1-0.5-3.8-2.1
				c-0.8-1.6-0.3-3.1,0.8-4.5c2.5-3,5-6,7.6-9C208.2,154.1,209.1,153,210.2,151.7z"/>
		</g>
		<g>
			<path fill="#FFFFFF" d="M87.6,160.4c0.7,2,1.9,3.4,3.7,4.1c2.4,1,4.8,0.6,7-0.7c0.8-0.5,1.7-0.9,2.7-0.8c1.1,0.1,1.9,0.8,2.2,1.9
				c0.3,1.2,0.1,2.4-0.9,3.2c-1,0.8-2.1,1.6-3.3,2c-4.8,1.8-9.6,1.7-13.8-1.6c-3.8-3-5.3-7.1-4.9-11.8c0.4-4.9,2.6-8.7,7.1-10.7
				c4.9-2.2,9.7-1.9,13.9,1.5c3.1,2.6,4.4,6,4.1,10.1c-0.1,1.7-1,2.6-2.7,2.8c-0.3,0-0.6,0-0.9,0c-4.5,0-8.9,0-13.4,0
				C88.3,160.4,88,160.4,87.6,160.4z M87.6,155.6c3.9,0,7.8,0,11.6,0c0.1-2.2-2-4.3-4.8-4.7C91.3,150.5,88.3,152.5,87.6,155.6z"/>
		</g>
		<g>
			<path fill="#FFFFFF" d="M51.6,161.8c0.1-2.2,0-4.3,0.3-6.5c0.7-5.3,4.9-9.6,10.1-10.5c6.4-1.1,12.3,2.4,14.3,8.5
				c0.3,1.1,0.6,2.2,0.6,3.3c0.1,3.5,0.1,7.1,0,10.6c0,1.7-1,2.9-2.5,3.4c-1.5,0.4-3.1-0.1-4.1-1.3c-0.5-0.7-0.7-1.5-0.7-2.3
				c0-3.2,0-6.4,0-9.6c0-0.8-0.1-1.6-0.3-2.4c-0.7-2.5-2.9-3.9-5.6-3.7c-2.4,0.2-4.4,2-4.8,4.5c-0.1,0.5-0.1,1.1-0.1,1.6
				c0,3.3,0,6.5,0,9.8c0,1.9-1.2,3.2-3.1,3.5c-1.8,0.2-3.5-0.9-4-2.6c-0.1-0.4-0.1-0.8-0.1-1.2C51.6,165.3,51.6,163.6,51.6,161.8
				C51.6,161.8,51.6,161.8,51.6,161.8z"/>
		</g>
		<path fill="#FFFFFF" d="M118.4,128.5c-3.4-14.6-16.8-25.4-32.2-25.4c-12.1,0-23.3,6.7-29,17.1C44,121.9,34,133,34,146.4
			c0,7.5,3.2,14.6,8.8,19.5c1.3,1.2,3.4,1.1,4.6-0.3c1.2-1.4,1.1-3.4-0.3-4.6c-4.2-3.7-6.6-9-6.6-14.6c0-10.5,8.3-19.2,18.9-19.8
			c1.2-0.1,2.3-0.8,2.8-1.9c4.3-9.1,13.7-15,24-15c13.1,0,24.4,9.6,26.2,22.4c0.2,1.6,1.6,2.8,3.2,2.8c9.1,0,16.2,7,16.2,15.7
			c0,4.7-2.2,9.2-5.8,12.1c-0.1,0-0.1,0.1-0.2,0.1c-0.5,0.3-1,0.6-1.5,0.8c-4,2-8.5,0-8.6-4.9c0-2.2,0-4.4,0-6.6
			c0-0.1,0-0.3,0.1-0.4c2.7,0,5.4,0,8.1,0c0.4,0,0.9,0,1.3-0.1c1.6-0.3,2.7-1.7,2.7-3.3c0-1.6-1.1-3-2.7-3.3
			c-0.5-0.1-0.9-0.1-1.4-0.1c-2.4,0-4.9,0-7.3,0c-0.2,0-0.5,0-0.8,0c0-1.2,0-2.4,0-3.5c0-1.2-0.4-2.3-1.4-3.1
			c-0.5-0.4-1.1-0.6-1.7-0.8c-0.4,0-0.7,0-1.1,0c-2.4,0.9-3,1.9-3,4.5c0,5.2,0,10.3,0,15.5c0,1.3,0.1,2.7,0.4,4
			c1.9,9.8,12.5,11.5,18.6,7.9c0.4-0.1,0.7-0.4,1.1-0.6c6.1-4.1,9.8-10.8,9.8-18.1C138.4,139.1,129.6,129.7,118.4,128.5z"/>
		<g>
			<path fill="#FFFFFF" d="M148.9,136c0.2,0,0.4,0.1,0.5,0.2c0.1,0.1,0.2,0.3,0.2,0.5c0,0.2-0.1,0.4-0.2,0.5
				c-0.7,0.6-1.5,0.9-2.4,0.9c-1,0-1.9-0.4-2.6-1.1c-0.7-0.7-1.1-1.6-1.1-2.6c0-1,0.4-1.9,1.1-2.6c0.7-0.7,1.6-1.1,2.6-1.1
				c0.9,0,1.7,0.3,2.4,0.9c0.2,0.1,0.2,0.3,0.2,0.5c0,0.2-0.1,0.4-0.2,0.5c-0.1,0.1-0.3,0.2-0.5,0.2c-0.2,0-0.3-0.1-0.4-0.2
				c-0.2-0.2-0.5-0.3-0.7-0.4c-0.2-0.1-0.5-0.1-0.8-0.1c-0.3,0-0.6,0.1-0.9,0.2c-0.3,0.1-0.5,0.3-0.7,0.5c-0.2,0.2-0.4,0.5-0.5,0.7
				c-0.1,0.3-0.2,0.6-0.2,0.9s0.1,0.6,0.2,0.9c0.1,0.3,0.3,0.5,0.5,0.7c0.2,0.2,0.5,0.4,0.7,0.5c0.3,0.1,0.6,0.2,0.9,0.2
				c0.3,0,0.6,0,0.8-0.1c0.2-0.1,0.5-0.2,0.7-0.4C148.6,136,148.8,136,148.9,136z"/>
			<path fill="#FFFFFF" d="M151.4,137.4v-9.2c0-0.2,0.1-0.4,0.2-0.5c0.1-0.1,0.3-0.2,0.5-0.2c0.2,0,0.4,0.1,0.5,0.2
				c0.1,0.1,0.2,0.3,0.2,0.5v8.5h0.3c0.2,0,0.4,0.1,0.5,0.2c0.1,0.1,0.2,0.3,0.2,0.5c0,0.2-0.1,0.4-0.2,0.5
				c-0.1,0.1-0.3,0.2-0.5,0.2h-1c-0.2,0-0.3-0.1-0.5-0.2C151.5,137.7,151.4,137.6,151.4,137.4z"/>
			<path fill="#FFFFFF" d="M162.9,134.4c0,1-0.4,1.9-1.1,2.6c-0.7,0.7-1.6,1.1-2.6,1.1c-1,0-1.9-0.4-2.6-1.1
				c-0.7-0.7-1.1-1.6-1.1-2.6c0-1,0.4-1.9,1.1-2.6c0.7-0.7,1.6-1.1,2.6-1.1c1,0,1.9,0.4,2.6,1.1c0.4,0.4,0.6,0.8,0.8,1.2
				C162.8,133.4,162.9,133.9,162.9,134.4z M159.2,132.1c-0.3,0-0.6,0.1-0.9,0.2c-0.3,0.1-0.5,0.3-0.7,0.5c-0.2,0.2-0.4,0.5-0.5,0.7
				c-0.1,0.3-0.2,0.6-0.2,0.9c0,0.3,0.1,0.6,0.2,0.9c0.1,0.3,0.3,0.5,0.5,0.7c0.2,0.2,0.5,0.4,0.7,0.5c0.3,0.1,0.6,0.2,0.9,0.2
				c0.3,0,0.6-0.1,0.9-0.2c0.3-0.1,0.5-0.3,0.7-0.5c0.2-0.2,0.4-0.5,0.5-0.7c0.1-0.3,0.2-0.6,0.2-0.9c0-0.3-0.1-0.6-0.2-0.9
				c-0.1-0.3-0.3-0.5-0.5-0.7c-0.2-0.2-0.5-0.4-0.7-0.5C159.8,132.1,159.5,132.1,159.2,132.1z"/>
			<path fill="#FFFFFF" d="M170.9,138.1c-0.2,0-0.4-0.1-0.5-0.2c-0.1-0.1-0.2-0.3-0.2-0.5c-0.3,0.2-0.6,0.4-1,0.5
				c-0.3,0.1-0.7,0.2-1.1,0.2c-0.5,0-0.9-0.1-1.3-0.3c-0.4-0.2-0.8-0.4-1.1-0.7c-0.3-0.3-0.6-0.7-0.7-1.1s-0.3-0.9-0.3-1.3v-3.3
				c0-0.2,0.1-0.4,0.2-0.5c0.1-0.1,0.3-0.2,0.5-0.2c0.2,0,0.4,0.1,0.5,0.2c0.1,0.1,0.2,0.3,0.2,0.5v3.3c0,0.3,0.1,0.6,0.2,0.8
				c0.1,0.3,0.3,0.5,0.4,0.7c0.2,0.2,0.4,0.3,0.7,0.4c0.3,0.1,0.5,0.2,0.8,0.2c0.3,0,0.5-0.1,0.8-0.2c0.3-0.1,0.5-0.3,0.7-0.4
				c0.2-0.2,0.3-0.4,0.4-0.7c0.1-0.2,0.2-0.5,0.2-0.8v-3.3c0-0.2,0.1-0.4,0.2-0.5c0.1-0.1,0.3-0.2,0.5-0.2c0.2,0,0.4,0.1,0.5,0.2
				c0.1,0.1,0.2,0.3,0.2,0.5v6c0,0.2-0.1,0.4-0.2,0.5C171.3,138,171.1,138.1,170.9,138.1z"/>
			<path fill="#FFFFFF" d="M177.1,130.7c0.9,0,1.6,0.3,2.3,0.8v-3.3c0-0.2,0.1-0.4,0.2-0.5c0.1-0.1,0.3-0.2,0.5-0.2
				c0.2,0,0.4,0.1,0.5,0.2c0.1,0.1,0.2,0.3,0.2,0.5v6.2c0,1-0.4,1.9-1.1,2.6c-0.7,0.7-1.6,1.1-2.6,1.1c-1,0-1.9-0.4-2.6-1.1
				c-0.7-0.7-1.1-1.6-1.1-2.6c0-1,0.4-1.9,1.1-2.6C175.3,131.1,176.1,130.7,177.1,130.7z M179.5,134.4c0-0.3-0.1-0.6-0.2-0.9
				s-0.3-0.5-0.5-0.7c-0.2-0.2-0.5-0.4-0.7-0.5c-0.3-0.1-0.6-0.2-0.9-0.2c-0.3,0-0.6,0.1-0.9,0.2c-0.3,0.1-0.5,0.3-0.7,0.5
				c-0.2,0.2-0.4,0.5-0.5,0.7c-0.1,0.3-0.2,0.6-0.2,0.9c0,0.3,0.1,0.6,0.2,0.9c0.1,0.3,0.3,0.5,0.5,0.7c0.2,0.2,0.5,0.4,0.7,0.5
				c0.3,0.1,0.6,0.2,0.9,0.2c0.3,0,0.6-0.1,0.9-0.2c0.3-0.1,0.5-0.3,0.7-0.5c0.2-0.2,0.4-0.5,0.5-0.7
				C179.4,135,179.5,134.7,179.5,134.4z"/>
			<path fill="#FFFFFF" d="M188.8,134.6c-0.4-0.2-0.7-0.3-0.9-0.5h0c-0.3-0.3-0.5-0.7-0.5-1.2c0-0.3,0.1-0.6,0.3-0.9
				c0.2-0.3,0.4-0.5,0.7-0.7c0.3-0.2,0.6-0.3,1-0.4c0.4-0.1,0.7-0.2,1.1-0.2c1.1,0,2,0.4,2.8,1.3c0.1,0.1,0.1,0.3,0.1,0.4
				c0,0.2-0.1,0.4-0.2,0.5c-0.1,0.1-0.3,0.2-0.5,0.2c-0.1,0-0.3,0-0.4-0.1c-0.1-0.1-0.2-0.2-0.3-0.3c-0.4-0.4-1-0.7-1.6-0.7
				c-0.6,0-1.1,0.2-1.5,0.6c-0.1,0.1-0.1,0.2-0.1,0.3c0,0.1,0.1,0.2,0.2,0.3l3.1,1c0.4,0.2,0.7,0.3,0.9,0.5h0
				c0.3,0.3,0.5,0.7,0.5,1.2c0,0.3-0.1,0.6-0.3,0.9c-0.2,0.3-0.4,0.5-0.7,0.7c-0.3,0.2-0.6,0.3-1,0.4c-0.4,0.1-0.7,0.2-1.1,0.2
				c-1.1,0-2.1-0.4-2.8-1.3c-0.1-0.1-0.1-0.3-0.1-0.4c0-0.2,0.1-0.4,0.2-0.5c0.1-0.1,0.3-0.2,0.5-0.2c0.1,0,0.3,0,0.4,0.1
				c0.1,0.1,0.2,0.2,0.3,0.2c0.4,0.4,1,0.7,1.6,0.7c0.6,0,1.1-0.2,1.5-0.6c0.1-0.1,0.1-0.2,0.1-0.3c0-0.1-0.1-0.2-0.2-0.3
				L188.8,134.6z"/>
			<path fill="#FFFFFF" d="M200.9,136c0.2,0,0.4,0.1,0.5,0.2c0.1,0.1,0.2,0.3,0.2,0.5c0,0.2-0.1,0.4-0.2,0.5
				c-0.7,0.6-1.5,0.9-2.4,0.9c-1,0-1.9-0.4-2.6-1.1c-0.7-0.7-1.1-1.6-1.1-2.6c0-1,0.4-1.9,1.1-2.6c0.7-0.7,1.6-1.1,2.6-1.1
				c1,0,1.9,0.4,2.6,1.1c0.4,0.4,0.6,0.8,0.8,1.2s0.3,0.9,0.3,1.4c0,0.2-0.1,0.4-0.2,0.5c-0.1,0.1-0.3,0.2-0.5,0.2h-5.2
				c0.1,0.2,0.2,0.5,0.3,0.7c0.1,0.2,0.3,0.4,0.5,0.5c0.2,0.1,0.4,0.3,0.6,0.3c0.2,0.1,0.5,0.1,0.7,0.1c0.3,0,0.6,0,0.8-0.1
				c0.2-0.1,0.5-0.2,0.7-0.4C200.6,136.1,200.7,136,200.9,136z M201.2,133.7c-0.1-0.2-0.2-0.5-0.3-0.7c-0.1-0.2-0.3-0.4-0.5-0.5
				c-0.2-0.1-0.4-0.3-0.6-0.3c-0.2-0.1-0.5-0.1-0.7-0.1c-0.3,0-0.5,0-0.7,0.1c-0.2,0.1-0.5,0.2-0.7,0.3c-0.2,0.1-0.4,0.3-0.5,0.5
				c-0.1,0.2-0.3,0.4-0.3,0.7H201.2z"/>
			<path fill="#FFFFFF" d="M205.9,131.4v0.1c0.3-0.3,0.7-0.5,1.1-0.6c0.4-0.1,0.8-0.2,1.2-0.2c0.2,0,0.4,0,0.6,0
				c0.2,0,0.4,0.1,0.6,0.1c0.2,0.1,0.3,0.2,0.5,0.3c0.1,0.1,0.2,0.3,0.2,0.5c0,0.1,0,0.2-0.1,0.3c0,0.1-0.1,0.2-0.1,0.2
				c-0.1,0.1-0.1,0.1-0.2,0.1c-0.1,0-0.2,0.1-0.3,0.1c-0.1,0-0.2,0-0.3-0.1c-0.3-0.1-0.6-0.2-0.9-0.2c-0.3,0-0.6,0.1-0.9,0.2
				c-0.3,0.1-0.5,0.3-0.7,0.5c-0.2,0.2-0.4,0.5-0.5,0.7c-0.1,0.3-0.2,0.6-0.2,0.9v3c0,0.2-0.1,0.4-0.2,0.5c-0.1,0.1-0.3,0.2-0.5,0.2
				c-0.2,0-0.4-0.1-0.5-0.2c-0.1-0.1-0.2-0.3-0.2-0.5v-6c0-0.2,0.1-0.4,0.2-0.5c0.1-0.1,0.3-0.2,0.5-0.2c0.2,0,0.4,0.1,0.5,0.2
				C205.8,131,205.9,131.2,205.9,131.4z"/>
			<path fill="#FFFFFF" d="M215.1,138.1c-0.3,0-0.5-0.1-0.6-0.4l-2.8-6.1c0-0.1-0.1-0.2-0.1-0.3c0-0.1,0-0.2,0.1-0.3
				c0-0.1,0.1-0.2,0.1-0.2c0.1-0.1,0.1-0.1,0.2-0.1c0.1,0,0.2-0.1,0.3-0.1c0.1,0,0.2,0,0.3,0.1c0.1,0.1,0.2,0.1,0.3,0.3l2.2,4.7
				l2.1-4.7c0.1-0.2,0.3-0.3,0.6-0.3c0.1,0,0.2,0,0.3,0.1c0.1,0,0.2,0.1,0.2,0.1c0.1,0.1,0.1,0.1,0.1,0.2c0,0.1,0.1,0.2,0.1,0.3
				c0,0.1,0,0.2-0.1,0.3l-2.8,6.1C215.6,138,215.4,138.1,215.1,138.1z"/>
			<path fill="#FFFFFF" d="M222.3,129.4c0,0.2-0.1,0.4-0.2,0.6c-0.2,0.2-0.3,0.2-0.6,0.2c-0.2,0-0.4-0.1-0.6-0.2s-0.2-0.3-0.2-0.6
				s0.1-0.4,0.2-0.6c0.2-0.2,0.3-0.2,0.6-0.2c0.2,0,0.4,0.1,0.6,0.2C222.2,129,222.3,129.2,222.3,129.4z M220.8,137.4v-6
				c0-0.2,0.1-0.4,0.2-0.5c0.1-0.1,0.3-0.2,0.5-0.2c0.2,0,0.4,0.1,0.5,0.2c0.1,0.1,0.2,0.3,0.2,0.5v6c0,0.2-0.1,0.4-0.2,0.5
				c-0.1,0.1-0.3,0.2-0.5,0.2c-0.2,0-0.4-0.1-0.5-0.2C220.8,137.7,220.8,137.6,220.8,137.4z"/>
			<path fill="#FFFFFF" d="M230,136c0.2,0,0.4,0.1,0.5,0.2c0.1,0.1,0.2,0.3,0.2,0.5c0,0.2-0.1,0.4-0.2,0.5c-0.7,0.6-1.5,0.9-2.4,0.9
				c-1,0-1.9-0.4-2.6-1.1c-0.7-0.7-1.1-1.6-1.1-2.6c0-1,0.4-1.9,1.1-2.6c0.7-0.7,1.6-1.1,2.6-1.1c0.9,0,1.7,0.3,2.4,0.9
				c0.2,0.1,0.2,0.3,0.2,0.5c0,0.2-0.1,0.4-0.2,0.5c-0.1,0.1-0.3,0.2-0.5,0.2c-0.2,0-0.3-0.1-0.4-0.2c-0.2-0.2-0.5-0.3-0.7-0.4
				c-0.2-0.1-0.5-0.1-0.8-0.1c-0.3,0-0.6,0.1-0.9,0.2c-0.3,0.1-0.5,0.3-0.7,0.5c-0.2,0.2-0.4,0.5-0.5,0.7c-0.1,0.3-0.2,0.6-0.2,0.9
				s0.1,0.6,0.2,0.9c0.1,0.3,0.3,0.5,0.5,0.7c0.2,0.2,0.5,0.4,0.7,0.5c0.3,0.1,0.6,0.2,0.9,0.2c0.3,0,0.6,0,0.8-0.1
				c0.2-0.1,0.5-0.2,0.7-0.4C229.7,136,229.8,136,230,136z"/>
			<path fill="#FFFFFF" d="M238.2,136c0.2,0,0.4,0.1,0.5,0.2c0.1,0.1,0.2,0.3,0.2,0.5c0,0.2-0.1,0.4-0.2,0.5
				c-0.7,0.6-1.5,0.9-2.4,0.9c-1,0-1.9-0.4-2.6-1.1c-0.7-0.7-1.1-1.6-1.1-2.6c0-1,0.4-1.9,1.1-2.6c0.7-0.7,1.6-1.1,2.6-1.1
				c1,0,1.9,0.4,2.6,1.1c0.4,0.4,0.6,0.8,0.8,1.2s0.3,0.9,0.3,1.4c0,0.2-0.1,0.4-0.2,0.5c-0.1,0.1-0.3,0.2-0.5,0.2H234
				c0.1,0.2,0.2,0.5,0.3,0.7c0.1,0.2,0.3,0.4,0.5,0.5c0.2,0.1,0.4,0.3,0.6,0.3c0.2,0.1,0.5,0.1,0.7,0.1c0.3,0,0.6,0,0.8-0.1
				c0.2-0.1,0.5-0.2,0.7-0.4C237.8,136.1,238,136,238.2,136z M238.5,133.7c-0.1-0.2-0.2-0.5-0.3-0.7c-0.1-0.2-0.3-0.4-0.5-0.5
				c-0.2-0.1-0.4-0.3-0.6-0.3c-0.2-0.1-0.5-0.1-0.7-0.1c-0.3,0-0.5,0-0.7,0.1c-0.2,0.1-0.5,0.2-0.7,0.3c-0.2,0.1-0.4,0.3-0.5,0.5
				c-0.1,0.2-0.3,0.4-0.3,0.7H238.5z"/>
			<path fill="#FFFFFF" d="M243.1,134.6c-0.4-0.2-0.7-0.3-0.9-0.5h0c-0.3-0.3-0.5-0.7-0.5-1.2c0-0.3,0.1-0.6,0.3-0.9
				c0.2-0.3,0.4-0.5,0.7-0.7c0.3-0.2,0.6-0.3,1-0.4c0.4-0.1,0.7-0.2,1.1-0.2c1.1,0,2,0.4,2.8,1.3c0.1,0.1,0.1,0.3,0.1,0.4
				c0,0.2-0.1,0.4-0.2,0.5c-0.1,0.1-0.3,0.2-0.5,0.2c-0.1,0-0.3,0-0.4-0.1c-0.1-0.1-0.2-0.2-0.3-0.3c-0.4-0.4-1-0.7-1.6-0.7
				c-0.6,0-1.1,0.2-1.5,0.6c-0.1,0.1-0.1,0.2-0.1,0.3c0,0.1,0.1,0.2,0.2,0.3l3.1,1c0.4,0.2,0.7,0.3,0.9,0.5h0
				c0.3,0.3,0.5,0.7,0.5,1.2c0,0.3-0.1,0.6-0.3,0.9c-0.2,0.3-0.4,0.5-0.7,0.7c-0.3,0.2-0.6,0.3-1,0.4c-0.4,0.1-0.7,0.2-1.1,0.2
				c-1.1,0-2.1-0.4-2.8-1.3c-0.1-0.1-0.1-0.3-0.1-0.4c0-0.2,0.1-0.4,0.2-0.5c0.1-0.1,0.3-0.2,0.5-0.2c0.1,0,0.3,0,0.4,0.1
				c0.1,0.1,0.2,0.2,0.3,0.2c0.4,0.4,1,0.7,1.6,0.7c0.6,0,1.1-0.2,1.5-0.6c0.1-0.1,0.1-0.2,0.1-0.3c0-0.1-0.1-0.2-0.2-0.3
				L243.1,134.6z"/>
		</g>
		<path fill="#FFFFFF" d="M240.5,157.8c0,2.1-1.7,3.7-3.7,3.7s-3.7-1.7-3.7-3.7c0-2.1,1.7-3.7,3.7-3.7S240.5,155.8,240.5,157.8z"/>
		<path fill="#FFFFFF" d="M185.8,157.8c0,2.1-1.7,3.7-3.7,3.7s-3.7-1.7-3.7-3.7c0-2.1,1.7-3.7,3.7-3.7S185.8,155.8,185.8,157.8z"/>
	</g>
</g>
</svg>
