<?xml version="1.0" encoding="utf-8"?>
<!-- Generator: Adobe Illustrator 18.1.1, SVG Export Plug-In . SVG Version: 6.00 Build 0)  -->
<svg version="1.1" xmlns="http://www.w3.org/2000/svg" xmlns:xlink="http://www.w3.org/1999/xlink" x="0px" y="0px"
	 viewBox="-41 164.9 512 512" enable-background="new -41 164.9 512 512" xml:space="preserve">
<g id="_x31__x2C_5">
</g>
<g id="Layer_5">
	<g>
		<g>
			<path d="M396.2,498c-0.5-0.1-1-0.3-1.5-0.4c-3.2-0.9-5.2-3.6-5.2-7.1c0-3.5,0-7.1,0-10.6c0-0.8-0.3-1.2-1.1-1.5
				c-10.2-3.5-16.8-12.8-16.9-23.6c-0.1-6.7,0-13.4,0-20.1c0-4.2,3-7.3,7.3-7.3c4-0.1,7.1,3,7.1,7.2c0.1,5.4,0,10.7,0,16.1
				c0,2.5-0.1,5.1,0.4,7.5c1.1,5.4,5.6,8.4,11.6,8c4.9-0.3,8.9-4.1,9.4-9.3c0.3-3.1,0.2-6.2,0.2-9.3c0-4.4,0-8.8,0-13.1
				c0-3.9,2.8-6.7,6.9-7c3.7-0.3,6.8,2.2,7.4,5.9c0.1,0.3,0.2,0.6,0.2,0.9c0,6.7,0,13.4,0,20.1c-0.1,0.5-0.2,0.9-0.2,1.4
				c-0.5,10.4-7,19.2-16.9,22.6c-0.9,0.3-1.2,0.7-1.2,1.7c0.1,3.4,0,6.9,0,10.3c0,3.6-1.9,6.3-5,7.2c-0.4,0.1-0.9,0.3-1.3,0.4
				C397.1,498,396.7,498,396.2,498z"/>
			<path d="M302,473.6c-5.4,5.3-11.9,7-19,6.1c-10.2-1.3-16.9-7.2-20.5-16.7c-5.8-15.4,3.3-32.1,19.3-35.5
				c14.6-3.1,29.4,5.9,32.1,21.3c0.2,1.1,0.4,2.2,0.4,3.3c0,6.8,0.1,13.6,0,20.4c0,4.1-3.1,6.9-7,6.5c-2.3-0.2-3.8-1.5-4.7-3.7
				C302.3,474.9,302.2,474.4,302,473.6z M300.7,453.4c0-7.3-5.4-12.8-12.6-12.9c-7.4-0.1-13.2,5.4-13.2,12.6
				c0,7.4,5.6,13.1,12.9,13.1C295.1,466.2,300.6,460.7,300.7,453.4z"/>
			<path d="M220.4,458.3c1.6,4.7,4.7,7.6,9.2,8.7c4.3,1.1,8.4,0.3,12.2-2c1.7-1,3.4-1.8,5.4-1.6c4.2,0.5,6.3,5.6,3.5,9.1
				c-1.4,1.7-3.4,3.3-5.4,4.2c-10.4,4.8-20.6,4.7-30-2.5c-5.6-4.3-8.5-10.4-9.3-17.4c-0.9-7.4,0.6-14.3,5.2-20.3
				c5.8-7.4,13.7-10.2,22.9-9.6c10.7,0.7,19.2,8,21.5,18.4c0.7,2.9,1,5.8,0.2,8.7c-0.7,2.6-2.1,3.8-4.7,4.1
				c-0.7,0.1-1.5,0.1-2.2,0.1c-8.9,0-17.9,0-26.8,0C221.6,458.3,221.1,458.3,220.4,458.3z M243.5,448.7c0.3-3.5-3.2-8.7-9.9-9.3
				c-6.3-0.6-12.6,3.9-13.2,9.3C228.1,448.7,235.8,448.7,243.5,448.7z"/>
			<path d="M343.9,440.9c-0.9,0-1.4,0-1.9,0c-4.5,0-9,0-13.6,0c-2.4,0-4.4-0.7-5.9-2.6c-1.6-1.9-2.2-4-1.3-6.4
				c0.9-2.4,2.7-3.8,5.2-4.4c0.6-0.1,1.3-0.2,1.9-0.2c9.2,0,18.4,0,27.7,0c1,0,2,0.1,2.9,0.3c5.6,1.4,7.6,7,4.1,11.6
				c-1.4,1.8-2.9,3.5-4.4,5.3c-5.6,6.6-11.3,13.3-16.9,19.9c-0.2,0.2-0.4,0.5-0.8,1c0.7,0,1.2,0,1.7,0c5.4,0,10.7,0,16.1,0
				c3.1,0,6.1,2.4,6.7,5.3c0.9,3.8-2.1,7.8-6.1,8.1c-1.4,0.1-2.9,0.1-4.3,0.1c-8.8,0-17.5-0.1-26.3,0c-3.4,0-6.2-0.9-7.7-4.2
				c-1.5-3.3-0.7-6.3,1.6-8.9c5-6,10.1-12,15.1-18C339.7,445.8,341.7,443.5,343.9,440.9z"/>
		</g>
		<g>
			<path fill="#1249F9" d="M99,458.3c1.3,4,3.8,6.7,7.5,8.2c4.9,1.9,9.6,1.2,14-1.4c1.7-1,3.4-1.8,5.4-1.5c2.3,0.3,3.7,1.7,4.3,3.8
				c0.7,2.4,0.2,4.8-1.8,6.3c-2,1.6-4.2,3.2-6.6,4.1c-9.6,3.6-19.1,3.4-27.5-3.2c-7.6-5.9-10.5-14.1-9.8-23.6
				c0.7-9.7,5.2-17.4,14.2-21.5c9.7-4.4,19.3-3.8,27.8,3.1c6.3,5.1,8.8,12.1,8.2,20.1c-0.2,3.5-2,5.2-5.5,5.5
				c-0.6,0.1-1.2,0.1-1.8,0.1c-8.9,0-17.8,0-26.7,0C100.3,458.3,99.7,458.3,99,458.3z M98.8,448.7c7.8,0,15.5,0,23.2,0
				c0.2-4.4-4.1-8.5-9.5-9.3C106.4,438.5,100.3,442.6,98.8,448.7z"/>
		</g>
		<g>
			<path fill="#1249F9" d="M27,461.1c0.2-4.3,0-8.7,0.6-13c1.3-10.6,9.7-19.1,20.2-20.9c12.8-2.2,24.6,4.8,28.6,17
				c0.7,2.1,1.1,4.4,1.2,6.7c0.2,7.1,0.1,14.2,0.1,21.2c0,3.3-1.9,5.8-4.9,6.7c-2.9,0.9-6.3-0.2-8.1-2.6c-1-1.4-1.4-2.9-1.4-4.6
				c0-6.4,0.1-12.8,0-19.1c0-1.6-0.2-3.3-0.6-4.8c-1.5-5-5.7-7.7-11.1-7.3c-4.9,0.3-8.9,4.1-9.6,9c-0.2,1.1-0.2,2.1-0.2,3.2
				c0,6.5,0,13,0,19.6c0,3.8-2.5,6.5-6.3,7c-3.5,0.5-7-1.8-7.9-5.2c-0.2-0.8-0.2-1.6-0.2-2.4c0-3.5,0-7,0-10.5
				C27.1,461.1,27,461.1,27,461.1z"/>
		</g>
		<path fill="#1249F9" d="M160.4,394.6c-6.8-29.2-33.5-50.6-64.3-50.6c-24.3,0-46.6,13.3-58,34.1c-26.3,3.3-46.3,25.5-46.3,52.1
			c0,15,6.4,29.2,17.6,39c2.7,2.4,6.8,2.1,9.2-0.6c2.4-2.7,2.1-6.8-0.6-9.2c-8.4-7.4-13.2-18-13.2-29.3c0-21,16.6-38.3,37.8-39.4
			c2.4-0.1,4.5-1.6,5.6-3.7c8.6-18.3,27.4-30.1,47.9-30.1c26.2,0,48.7,19.3,52.4,44.8c0.5,3.2,3.2,5.6,6.5,5.6
			c18.2,0,32.4,14,32.4,31.3c0,9.5-4.3,18.3-11.6,24.2c-0.1,0.1-0.3,0.2-0.4,0.2c-0.9,0.6-2,1.2-3,1.7c-7.9,3.9-16.9,0-17.1-9.8
			c-0.1-4.4,0-8.8,0-13.1c0-0.3,0.1-0.5,0.1-0.8c5.5,0,10.9,0,16.3,0c0.9,0,1.8-0.1,2.6-0.3c3.2-0.6,5.3-3.3,5.3-6.6
			c0-3.3-2.2-5.9-5.4-6.5c-0.9-0.2-1.9-0.2-2.8-0.2c-4.8,0-9.7,0-14.5,0c-0.5,0-1,0-1.6-0.1c0-2.4,0-4.7,0-7.1
			c0-2.4-0.7-4.6-2.8-6.1c-1-0.7-2.2-1.1-3.3-1.6c-0.7,0-1.5,0-2.2,0c-4.8,1.9-6.1,3.8-6.1,9.1c0,10.3,0,20.6,0,30.9
			c0,2.6,0.2,5.3,0.8,7.9c3.8,19.6,25,22.9,37.1,15.7c0.7-0.3,1.4-0.7,2.1-1.2c12.1-8.2,19.7-21.5,19.7-36.2
			C200.4,415.8,182.8,397,160.4,394.6z"/>
		<g>
			<path d="M221.4,409.5c0.4,0,0.7,0.1,1,0.4c0.3,0.3,0.4,0.6,0.4,1c0,0.4-0.1,0.7-0.4,1c-1.4,1.2-3,1.8-4.8,1.8
				c-2,0-3.8-0.7-5.2-2.2c-1.4-1.4-2.2-3.2-2.2-5.2s0.7-3.8,2.2-5.2c1.4-1.4,3.2-2.2,5.2-2.2c1.9,0,3.5,0.6,4.8,1.8
				c0.3,0.3,0.5,0.6,0.5,1c0,0.4-0.1,0.7-0.4,1c-0.3,0.3-0.6,0.4-1,0.4c-0.3,0-0.6-0.1-0.9-0.3c-0.4-0.4-0.9-0.7-1.4-0.9
				c-0.5-0.2-1-0.3-1.6-0.3c-0.6,0-1.2,0.1-1.8,0.4c-0.6,0.2-1.1,0.6-1.5,1c-0.4,0.4-0.8,0.9-1,1.5c-0.2,0.6-0.4,1.2-0.4,1.8
				s0.1,1.2,0.4,1.8c0.2,0.6,0.6,1.1,1,1.5c0.4,0.4,0.9,0.7,1.5,1c0.6,0.2,1.2,0.4,1.8,0.4c0.6,0,1.1-0.1,1.6-0.3
				c0.5-0.2,1-0.5,1.4-0.8C220.8,409.6,221.1,409.5,221.4,409.5z"/>
			<path d="M226.4,412.3V394c0-0.4,0.1-0.7,0.4-1c0.3-0.3,0.6-0.4,1-0.4c0.4,0,0.7,0.1,1,0.4c0.3,0.3,0.4,0.6,0.4,1V411h0.6
				c0.4,0,0.7,0.1,1,0.4c0.3,0.3,0.4,0.6,0.4,1c0,0.4-0.1,0.7-0.4,1c-0.3,0.3-0.6,0.4-1,0.4h-2c-0.4,0-0.7-0.1-1-0.4
				C226.6,413,226.4,412.7,226.4,412.3z"/>
			<path d="M249.3,406.3c0,2.1-0.7,3.8-2.2,5.2c-1.5,1.4-3.2,2.2-5.2,2.2c-2,0-3.8-0.7-5.2-2.2c-1.4-1.4-2.2-3.2-2.2-5.2
				s0.7-3.8,2.2-5.2c1.4-1.4,3.2-2.2,5.2-2.2c2,0,3.8,0.7,5.2,2.2c0.7,0.7,1.3,1.5,1.6,2.4S249.2,405.3,249.3,406.3z M241.9,401.7
				c-0.7,0-1.3,0.1-1.8,0.4c-0.6,0.2-1,0.6-1.5,1c-0.4,0.4-0.7,0.9-1,1.5c-0.2,0.6-0.4,1.2-0.4,1.8c0,0.6,0.1,1.2,0.4,1.8
				c0.2,0.6,0.6,1.1,1,1.5c0.4,0.4,0.9,0.7,1.5,1c0.6,0.2,1.2,0.4,1.8,0.4c0.6,0,1.2-0.1,1.8-0.4c0.6-0.2,1.1-0.6,1.5-1
				c0.4-0.4,0.7-0.9,1-1.5s0.4-1.2,0.4-1.8c0-0.6-0.1-1.2-0.4-1.8s-0.6-1-1-1.5c-0.4-0.4-0.9-0.8-1.5-1
				C243.1,401.8,242.5,401.7,241.9,401.7z"/>
			<path d="M265.3,413.7c-0.4,0-0.7-0.1-1-0.4s-0.4-0.6-0.4-1c-0.6,0.5-1.2,0.8-1.9,1c-0.7,0.2-1.4,0.3-2.2,0.3
				c-0.9,0-1.8-0.2-2.7-0.5s-1.6-0.9-2.2-1.5c-0.6-0.6-1.1-1.4-1.5-2.2s-0.5-1.7-0.5-2.7v-6.5c0-0.4,0.1-0.7,0.4-1
				c0.3-0.3,0.6-0.4,1-0.4c0.4,0,0.7,0.1,1,0.4c0.3,0.3,0.4,0.6,0.4,1v6.5c0,0.6,0.1,1.1,0.3,1.6c0.2,0.5,0.5,0.9,0.9,1.3
				s0.8,0.7,1.3,0.9c0.5,0.2,1,0.3,1.6,0.3c0.6,0,1.1-0.1,1.6-0.3c0.5-0.2,0.9-0.5,1.3-0.9c0.4-0.4,0.7-0.8,0.9-1.3
				c0.2-0.5,0.3-1,0.3-1.6v-6.5c0-0.4,0.1-0.7,0.4-1c0.3-0.3,0.6-0.4,1-0.4c0.4,0,0.7,0.1,1,0.4c0.3,0.3,0.4,0.6,0.4,1v12
				c0,0.4-0.1,0.7-0.4,1C266,413.6,265.7,413.7,265.3,413.7z"/>
			<path d="M277.8,399c1.7,0,3.3,0.5,4.6,1.6V394c0-0.4,0.1-0.7,0.4-1c0.3-0.3,0.6-0.4,1-0.4c0.4,0,0.7,0.1,1,0.4
				c0.3,0.3,0.4,0.6,0.4,1v12.3c0,2.1-0.7,3.8-2.2,5.2c-1.5,1.4-3.2,2.2-5.2,2.2c-2,0-3.8-0.7-5.2-2.2c-1.4-1.4-2.2-3.2-2.2-5.2
				s0.7-3.8,2.2-5.2C274,399.7,275.7,399,277.8,399z M282.4,406.3c0-0.6-0.1-1.2-0.4-1.8s-0.6-1-1-1.5c-0.4-0.4-0.9-0.8-1.5-1
				c-0.6-0.2-1.2-0.4-1.8-0.4c-0.7,0-1.3,0.1-1.8,0.4c-0.6,0.2-1,0.6-1.5,1c-0.4,0.4-0.7,0.9-1,1.5c-0.2,0.6-0.4,1.2-0.4,1.8
				c0,0.6,0.1,1.2,0.4,1.8c0.2,0.6,0.6,1.1,1,1.5c0.4,0.4,0.9,0.7,1.5,1c0.6,0.2,1.2,0.4,1.8,0.4c0.6,0,1.2-0.1,1.8-0.4
				c0.6-0.2,1.1-0.6,1.5-1c0.4-0.4,0.7-0.9,1-1.5S282.4,407,282.4,406.3z"/>
			<path d="M301.1,406.7c-0.8-0.3-1.4-0.6-1.7-1h0c-0.7-0.7-1-1.5-1-2.4c0-0.7,0.2-1.3,0.5-1.8s0.8-1,1.4-1.4s1.2-0.7,1.9-0.9
				c0.7-0.2,1.4-0.3,2.2-0.3c2.2,0,4.1,0.9,5.6,2.6c0.2,0.2,0.3,0.5,0.3,0.8c0,0.4-0.1,0.7-0.4,1c-0.3,0.3-0.6,0.4-1,0.4
				c-0.3,0-0.5-0.1-0.7-0.2c-0.2-0.2-0.4-0.3-0.6-0.5c-0.9-0.9-2-1.3-3.3-1.3c-1.3,0-2.3,0.4-3,1.2c-0.1,0.1-0.2,0.3-0.2,0.6
				s0.1,0.4,0.3,0.5l6.2,2c0.9,0.3,1.4,0.7,1.7,1h0c0.7,0.7,1,1.5,1,2.4c0,0.7-0.2,1.3-0.5,1.8c-0.4,0.5-0.8,1-1.4,1.4
				c-0.6,0.4-1.2,0.7-1.9,0.9s-1.4,0.3-2.1,0.3c-2.2,0-4.1-0.9-5.6-2.6c-0.2-0.3-0.3-0.5-0.3-0.9c0-0.4,0.1-0.7,0.4-1
				c0.3-0.3,0.6-0.4,1-0.4c0.3,0,0.5,0.1,0.7,0.3c0.2,0.2,0.4,0.3,0.6,0.5c0.9,0.9,2,1.3,3.3,1.3c1.3,0,2.3-0.4,3-1.2
				c0.1-0.1,0.2-0.3,0.2-0.5c0-0.2-0.1-0.4-0.4-0.5L301.1,406.7z"/>
			<path d="M325.2,409.6c0.4,0,0.7,0.1,1,0.4c0.3,0.3,0.4,0.6,0.4,1c0,0.4-0.1,0.7-0.4,1c-1.4,1.2-3,1.8-4.8,1.8
				c-2,0-3.8-0.7-5.2-2.2c-1.4-1.4-2.2-3.2-2.2-5.2s0.7-3.8,2.2-5.2c1.4-1.4,3.2-2.2,5.2-2.2c2,0,3.8,0.7,5.2,2.2
				c0.7,0.7,1.3,1.5,1.6,2.4s0.5,1.8,0.5,2.8c0,0.4-0.1,0.7-0.4,1c-0.3,0.3-0.6,0.4-1,0.4h-10.4c0.1,0.5,0.4,0.9,0.7,1.3
				s0.6,0.7,1,1c0.4,0.3,0.8,0.5,1.3,0.7c0.5,0.2,1,0.2,1.5,0.2c0.6,0,1.1-0.1,1.6-0.3c0.5-0.2,0.9-0.4,1.3-0.8
				C324.5,409.7,324.8,409.6,325.2,409.6z M325.8,405c-0.1-0.5-0.4-0.9-0.7-1.3s-0.6-0.7-1-1c-0.4-0.3-0.8-0.5-1.3-0.7
				c-0.5-0.2-1-0.2-1.5-0.2c-0.5,0-1,0.1-1.5,0.2c-0.5,0.2-0.9,0.4-1.3,0.7c-0.4,0.3-0.7,0.6-1,1c-0.3,0.4-0.5,0.8-0.6,1.3H325.8z"
				/>
			<path d="M335.1,400.3v0.3c0.7-0.5,1.4-0.9,2.1-1.2c0.8-0.3,1.6-0.4,2.5-0.4c0.4,0,0.8,0,1.2,0.1c0.4,0.1,0.9,0.1,1.2,0.3
				c0.4,0.1,0.7,0.3,0.9,0.6c0.2,0.2,0.4,0.5,0.4,0.9c0,0.2,0,0.4-0.1,0.5c-0.1,0.2-0.2,0.3-0.3,0.4c-0.1,0.1-0.3,0.2-0.4,0.3
				c-0.2,0.1-0.3,0.1-0.5,0.1c-0.2,0-0.4,0-0.6-0.1c-0.6-0.2-1.2-0.3-1.8-0.3c-0.6,0-1.2,0.1-1.8,0.4c-0.6,0.2-1.1,0.6-1.5,1
				s-0.7,0.9-1,1.5c-0.2,0.6-0.4,1.2-0.4,1.8v6c0,0.4-0.1,0.7-0.4,1c-0.3,0.3-0.6,0.4-1,0.4c-0.4,0-0.7-0.1-1-0.4
				c-0.3-0.3-0.4-0.6-0.4-1v-12c0-0.4,0.1-0.7,0.4-1c0.3-0.3,0.6-0.4,1-0.4c0.4,0,0.7,0.1,1,0.4C335,399.6,335.1,399.9,335.1,400.3z
				"/>
			<path d="M353.6,413.7c-0.6,0-1-0.2-1.2-0.7l-5.6-12.1c-0.1-0.2-0.1-0.4-0.1-0.6c0-0.2,0-0.4,0.1-0.5c0.1-0.2,0.2-0.3,0.3-0.4
				c0.1-0.1,0.3-0.2,0.4-0.3c0.2-0.1,0.3-0.1,0.5-0.1c0.2,0,0.5,0.1,0.7,0.2c0.2,0.1,0.4,0.3,0.5,0.5l4.3,9.4l4.3-9.4
				c0.3-0.5,0.7-0.7,1.2-0.7c0.2,0,0.4,0,0.5,0.1c0.2,0.1,0.3,0.2,0.4,0.3c0.1,0.1,0.2,0.3,0.3,0.4c0.1,0.2,0.1,0.3,0.1,0.5
				c0,0.2,0,0.4-0.1,0.6l-5.5,12.1C354.5,413.5,354.1,413.7,353.6,413.7z"/>
			<path d="M367.8,396.3c0,0.4-0.2,0.8-0.5,1.1c-0.3,0.3-0.7,0.5-1.1,0.5c-0.4,0-0.8-0.2-1.1-0.5s-0.5-0.7-0.5-1.1s0.2-0.8,0.5-1.1
				c0.3-0.3,0.7-0.5,1.1-0.5c0.4,0,0.8,0.2,1.1,0.5C367.7,395.5,367.8,395.9,367.8,396.3z M364.9,412.3v-12c0-0.4,0.1-0.7,0.4-1
				c0.3-0.3,0.6-0.4,1-0.4c0.4,0,0.7,0.1,1,0.4c0.3,0.3,0.4,0.6,0.4,1v12c0,0.4-0.1,0.7-0.4,1c-0.3,0.3-0.6,0.4-1,0.4
				c-0.4,0-0.7-0.1-1-0.4C365,413,364.9,412.7,364.9,412.3z"/>
			<path d="M383.3,409.5c0.4,0,0.7,0.1,1,0.4s0.4,0.6,0.4,1c0,0.4-0.1,0.7-0.4,1c-1.4,1.2-3,1.8-4.8,1.8c-2,0-3.8-0.7-5.2-2.2
				c-1.4-1.4-2.2-3.2-2.2-5.2s0.7-3.8,2.2-5.2c1.4-1.4,3.2-2.2,5.2-2.2c1.9,0,3.5,0.6,4.8,1.8c0.3,0.3,0.5,0.6,0.5,1
				c0,0.4-0.1,0.7-0.4,1c-0.3,0.3-0.6,0.4-1,0.4c-0.3,0-0.6-0.1-0.9-0.3c-0.4-0.4-0.9-0.7-1.4-0.9c-0.5-0.2-1-0.3-1.6-0.3
				c-0.6,0-1.2,0.1-1.8,0.4c-0.6,0.2-1.1,0.6-1.5,1c-0.4,0.4-0.8,0.9-1,1.5c-0.2,0.6-0.4,1.2-0.4,1.8s0.1,1.2,0.4,1.8
				c0.2,0.6,0.6,1.1,1,1.5c0.4,0.4,0.9,0.7,1.5,1c0.6,0.2,1.2,0.4,1.8,0.4c0.6,0,1.1-0.1,1.6-0.3c0.5-0.2,1-0.5,1.4-0.8
				C382.7,409.6,382.9,409.5,383.3,409.5z"/>
			<path d="M399.6,409.6c0.4,0,0.7,0.1,1,0.4c0.3,0.3,0.4,0.6,0.4,1c0,0.4-0.1,0.7-0.4,1c-1.4,1.2-3,1.8-4.8,1.8
				c-2,0-3.8-0.7-5.2-2.2c-1.4-1.4-2.2-3.2-2.2-5.2s0.7-3.8,2.2-5.2c1.4-1.4,3.2-2.2,5.2-2.2c2,0,3.8,0.7,5.2,2.2
				c0.7,0.7,1.3,1.5,1.6,2.4s0.5,1.8,0.5,2.8c0,0.4-0.1,0.7-0.4,1c-0.3,0.3-0.6,0.4-1,0.4h-10.4c0.1,0.5,0.4,0.9,0.7,1.3
				s0.6,0.7,1,1c0.4,0.3,0.8,0.5,1.3,0.7c0.5,0.2,1,0.2,1.5,0.2c0.6,0,1.1-0.1,1.6-0.3c0.5-0.2,0.9-0.4,1.3-0.8
				C399,409.7,399.3,409.6,399.6,409.6z M400.2,405c-0.1-0.5-0.4-0.9-0.7-1.3s-0.6-0.7-1-1c-0.4-0.3-0.8-0.5-1.3-0.7
				c-0.5-0.2-1-0.2-1.5-0.2c-0.5,0-1,0.1-1.5,0.2c-0.5,0.2-0.9,0.4-1.3,0.7c-0.4,0.3-0.7,0.6-1,1c-0.3,0.4-0.5,0.8-0.6,1.3H400.2z"
				/>
			<path d="M409.6,406.7c-0.8-0.3-1.4-0.6-1.7-1h0c-0.7-0.7-1-1.5-1-2.4c0-0.7,0.2-1.3,0.5-1.8s0.8-1,1.4-1.4s1.2-0.7,1.9-0.9
				c0.7-0.2,1.4-0.3,2.2-0.3c2.2,0,4.1,0.9,5.6,2.6c0.2,0.2,0.3,0.5,0.3,0.8c0,0.4-0.1,0.7-0.4,1c-0.3,0.3-0.6,0.4-1,0.4
				c-0.3,0-0.5-0.1-0.7-0.2c-0.2-0.2-0.4-0.3-0.6-0.5c-0.9-0.9-2-1.3-3.3-1.3c-1.3,0-2.3,0.4-3,1.2c-0.1,0.1-0.2,0.3-0.2,0.6
				s0.1,0.4,0.3,0.5l6.2,2c0.9,0.3,1.4,0.7,1.7,1h0c0.7,0.7,1,1.5,1,2.4c0,0.7-0.2,1.3-0.5,1.8c-0.4,0.5-0.8,1-1.4,1.4
				c-0.6,0.4-1.2,0.7-1.9,0.9s-1.4,0.3-2.1,0.3c-2.2,0-4.1-0.9-5.6-2.6c-0.2-0.3-0.3-0.5-0.3-0.9c0-0.4,0.1-0.7,0.4-1
				c0.3-0.3,0.6-0.4,1-0.4c0.3,0,0.5,0.1,0.7,0.3c0.2,0.2,0.4,0.3,0.6,0.5c0.9,0.9,2,1.3,3.3,1.3c1.3,0,2.3-0.4,3-1.2
				c0.1-0.1,0.2-0.3,0.2-0.5c0-0.2-0.1-0.4-0.4-0.5L409.6,406.7z"/>
		</g>
		<path fill="#1249F9" d="M404.3,453.2c0,4.1-3.3,7.5-7.5,7.5c-4.1,0-7.5-3.3-7.5-7.5c0-4.1,3.3-7.5,7.5-7.5
			C401,445.7,404.3,449.1,404.3,453.2z"/>
		<path fill="#1249F9" d="M295,453.2c0,4.1-3.3,7.5-7.5,7.5c-4.1,0-7.5-3.3-7.5-7.5c0-4.1,3.3-7.5,7.5-7.5
			C291.6,445.7,295,449.1,295,453.2z"/>
		<g>
			<path d="M438.1,391.7c0,3.8-2.9,6.7-6.8,6.7c-3.8,0-6.8-2.9-6.8-6.7c0-3.7,3-6.6,6.8-6.6C435.2,385.1,438.1,388.1,438.1,391.7z
				 M426.2,391.7c0,2.9,2.2,5.3,5.2,5.3c2.9,0,5-2.3,5-5.2c0-2.9-2.1-5.3-5.1-5.3S426.2,388.8,426.2,391.7z M430.3,395.2h-1.5v-6.6
				c0.6-0.1,1.5-0.2,2.5-0.2c1.3,0,1.8,0.2,2.3,0.5c0.4,0.3,0.6,0.8,0.6,1.5c0,0.7-0.6,1.3-1.4,1.5v0.1c0.6,0.2,1,0.7,1.2,1.6
				c0.2,1,0.3,1.4,0.5,1.7h-1.7c-0.2-0.2-0.3-0.8-0.5-1.6c-0.1-0.7-0.5-1-1.4-1h-0.7V395.2z M430.3,391.5h0.7c0.8,0,1.5-0.3,1.5-1
				c0-0.6-0.4-1-1.4-1c-0.4,0-0.7,0-0.8,0.1V391.5z"/>
		</g>
	</g>
</g>
</svg>
